<mxfile host="app.diagrams.net" modified="2024-06-02T10:35:53.163Z" agent="Mozilla/5.0 (Windows NT 10.0; Win64; x64) AppleWebKit/537.36 (KHTML, like Gecko) Chrome/123.0.0.0 Safari/537.36 OPR/109.0.0.0" version="24.4.8" etag="izGy9Q9YVYfWPWCmxvqN" type="github">
  <diagram name="Страница — 1" id="v00zqgnZbxmumNdSIBY3">
    <mxGraphModel>
      <root>
        <mxCell id="0" />
        <mxCell id="1" parent="0" />
      </root>
    </mxGraphModel>
  </diagram>
</mxfile>
